<?xml version="1.0" encoding="UTF-8"?>
<svg id="b" data-name="Number" xmlns="http://www.w3.org/2000/svg" viewBox="0 0 1137.59 622.74">
  <defs>
    <style>
      .c {
        fill: #e81a1a;
      }
    </style>
  </defs>
  <g>
    <path class="c" d="M0,75.47l29.63-8.41c3.78-1.08,7.37-1.62,10.76-1.65,3.39-.02,6.44.5,9.16,1.57,2.71,1.07,5.06,2.69,7.03,4.87,1.97,2.18,3.44,4.97,4.4,8.38.69,2.42.97,4.57.85,6.44-.12,1.88-.36,3.48-.72,4.8-.45,1.6-1.07,3-1.87,4.21,1.96.59,3.87,1.52,5.7,2.8,1.54,1.12,3.1,2.64,4.67,4.56,1.57,1.93,2.81,4.48,3.71,7.66,1.03,3.63,1.32,7.11.88,10.42-.45,3.32-1.57,6.35-3.36,9.11-1.79,2.76-4.25,5.18-7.39,7.25-3.13,2.08-6.82,3.71-11.05,4.92l-30.88,8.77L0,75.47ZM38.33,89.48c-.99-3.48-3.38-4.68-7.16-3.61l-2.72.77,2.97,10.44,2.72-.77c3.78-1.07,5.18-3.35,4.19-6.83ZM42.55,125.94c5.75-1.63,8-4.64,6.76-9.03-1.25-4.39-4.75-5.77-10.5-4.13l-2.72.77,3.74,13.17,2.72-.77Z"/>
    <path class="c" d="M73.82,95.41c-1.24-5.53-1.35-10.98-.34-16.37,1.01-5.38,2.93-10.31,5.76-14.77,2.83-4.46,6.46-8.3,10.9-11.51,4.44-3.21,9.42-5.44,14.95-6.68,5.53-1.24,10.98-1.35,16.37-.34,5.39,1.01,10.31,2.93,14.77,5.76,4.46,2.83,8.3,6.46,11.51,10.9,3.21,4.44,5.44,9.42,6.68,14.95,1.24,5.53,1.35,10.99.34,16.37-1.01,5.39-2.93,10.31-5.76,14.77-2.83,4.46-6.46,8.3-10.9,11.51-4.44,3.21-9.42,5.44-14.95,6.68-5.53,1.24-10.99,1.35-16.37.34-5.39-1.01-10.31-2.93-14.77-5.76-4.46-2.83-8.3-6.46-11.51-10.9-3.21-4.44-5.44-9.42-6.68-14.95ZM98,89.99c.5,2.23,1.39,4.22,2.67,5.99,1.28,1.77,2.82,3.22,4.6,4.35,1.78,1.13,3.75,1.9,5.9,2.31,2.15.41,4.33.36,6.56-.14,2.22-.5,4.22-1.39,5.99-2.67,1.77-1.28,3.22-2.82,4.35-4.6,1.13-1.78,1.9-3.75,2.31-5.9.41-2.15.36-4.33-.14-6.56-.5-2.23-1.39-4.22-2.67-5.99-1.28-1.77-2.82-3.22-4.6-4.35-1.79-1.13-3.75-1.9-5.9-2.31-2.15-.4-4.33-.36-6.56.14-2.23.5-4.22,1.39-5.99,2.67-1.77,1.28-3.22,2.82-4.35,4.6-1.13,1.79-1.9,3.75-2.31,5.9-.41,2.15-.36,4.33.14,6.56Z"/>
    <path class="c" d="M155.08,37.3l20.35-3.52,26.56,26.18-5.17-29.88,24.3-4.2,13.41,77.55-20.46,3.54-26.43-26.09,5.15,29.77-24.3,4.2-13.41-77.55Z"/>
    <path class="c" d="M231.62,24.31l20.47-2.71,25.51,27.21-3.98-30.06,24.45-3.24,10.33,78.03-20.59,2.73-25.37-27.11,3.97,29.95-24.45,3.24-10.33-78.03Z"/>
    <path class="c" d="M308.1,14.51l46.14-4.66,2.08,20.55-21.13,2.14.88,8.69,20.78-2.1,1.97,19.49-20.78,2.1.91,9.04,21.95-2.22,2.08,20.55-46.96,4.75-7.91-78.31Z"/>
    <path class="c" d="M411.25,5.49l18.84-1.17,34.67,76.71-24.73,1.53-3.03-6.91-23.79,1.47-2.15,7.23-24.73,1.53,24.93-80.4ZM429.33,58.76l-6.15-13.45-4.45,14.11,10.6-.66Z"/>
    <path class="c" d="M463.5,2.41l20.64-.64,22.64,29.64-.93-30.31,24.65-.76,2.42,78.67-20.76.64-22.51-29.53.93,30.19-24.65.76-2.42-78.67Z"/>
    <path class="c" d="M540.17.36l20.65-.11,21.88,30.21-.16-30.33,24.66-.13.42,78.7-20.77.11-21.76-30.09.16,30.21-24.66.13-.42-78.7Z"/>
    <path class="c" d="M617.12.48l26.66.58-1.7,78.69-26.66-.58,1.7-78.69Z"/>
    <path class="c" d="M674.39,2.07l11.8,34.78,14.96-33.59,27.47,1.22-34.16,77.26-20.39-.91L646.92.84l27.47,1.23Z"/>
    <path class="c" d="M732.01,4.93l46.25,3.36-1.5,20.6-21.18-1.54-.63,8.71,20.83,1.51-1.42,19.54-20.83-1.51-.66,9.06,22.01,1.6-1.5,20.6-47.08-3.42,5.7-78.5Z"/>
    <path class="c" d="M787.79,9.01l27,2.71c5.01.5,9.58,1.63,13.71,3.39,4.13,1.76,7.63,4.09,10.51,6.98,2.87,2.9,5,6.33,6.38,10.31,1.38,3.97,1.82,8.42,1.33,13.36-.39,3.92-1.27,7.19-2.64,9.82-1.37,2.63-2.81,4.78-4.32,6.44-1.77,1.88-3.71,3.42-5.8,4.64l12.09,27.3-29.35-2.95-9.75-21.02-1.99,19.84-25.01-2.51,7.86-78.31ZM808.94,50.03l1.29.13c2.97.3,5.56-.11,7.77-1.24,2.21-1.12,3.47-3.25,3.78-6.38.31-3.13-.5-5.46-2.44-7-1.94-1.54-4.4-2.46-7.37-2.75l-1.29-.13-1.74,17.38Z"/>
    <path class="c" d="M848.83,69.85c1.64.77,3.38,1.43,5.22,1.99,1.51.59,3.24,1.13,5.2,1.63s3.95.87,5.98,1.13c3.59.46,5.55-.63,5.9-3.28.13-1.01-.28-2.12-1.24-3.31-.96-1.19-2.19-2.54-3.7-4.05-1.51-1.5-3.12-3.16-4.83-4.97-1.71-1.81-3.27-3.83-4.69-6.08-1.42-2.25-2.5-4.71-3.27-7.38-.76-2.68-.93-5.65-.51-8.93.48-3.67,1.56-6.82,3.25-9.45,1.69-2.64,3.83-4.74,6.41-6.31,2.58-1.57,5.52-2.63,8.8-3.2,3.29-.57,6.72-.62,10.31-.15,1.87.24,3.73.58,5.58,1.02,1.85.44,3.5.83,4.96,1.18,1.68.46,3.33.91,4.94,1.36l-2.84,21.88c-.62-.16-1.31-.33-2.08-.51-.62-.16-1.31-.33-2.08-.51-.77-.18-1.59-.33-2.44-.44-.47-.06-1.05-.12-1.76-.17-.71-.05-1.38-.04-2.03.04-.65.08-1.23.28-1.75.61-.52.33-.82.84-.92,1.55-.08.63.34,1.47,1.28,2.55.93,1.07,2.08,2.33,3.44,3.78,1.36,1.45,2.85,3.11,4.47,4.98,1.62,1.88,3.05,3.97,4.3,6.27s2.23,4.85,2.94,7.64c.71,2.79.85,5.82.43,9.1-.45,3.43-1.41,6.58-2.89,9.44-1.48,2.86-3.52,5.25-6.11,7.18-2.59,1.92-5.76,3.3-9.52,4.12-3.76.82-8.09.91-13,.28-2.97-.38-5.7-.88-8.2-1.48-2.5-.6-4.7-1.22-6.6-1.87-2.21-.68-4.22-1.42-6.02-2.21l3.04-23.4Z"/>
    <path class="c" d="M935.55,27.12l18.63,3.04,16.79,82.49-24.46-3.99-1.42-7.41-23.53-3.84-3.7,6.57-24.46-3.99,42.14-72.87ZM941.37,83.06l-3.02-14.48-7.46,12.77,10.48,1.71Z"/>
    <path class="c" d="M987.13,35.98l26.17,5.11-15.08,77.25-26.17-5.11,15.08-77.25Z"/>
    <path class="c" d="M1023.35,42.92l26.45,6.07c4.91,1.13,9.3,2.82,13.18,5.08,3.88,2.26,7.06,5.01,9.55,8.25,2.49,3.23,4.17,6.91,5.04,11.02.87,4.12.75,8.59-.36,13.42-.88,3.83-2.17,6.97-3.85,9.41-1.69,2.44-3.39,4.39-5.1,5.85-1.99,1.64-4.1,2.93-6.34,3.87l8.57,28.6-28.75-6.6-7.04-22.08-4.46,19.44-24.5-5.62,17.61-76.71ZM1039.18,86.27l1.27.29c2.91.67,5.54.59,7.87-.25,2.33-.84,3.85-2.79,4.55-5.86.7-3.07.19-5.48-1.54-7.26-1.73-1.77-4.06-2.99-6.97-3.66l-1.26-.29-3.91,17.02Z"/>
    <path class="c" d="M1092.91,59.27l44.69,12.4-5.52,19.9-20.47-5.68-2.33,8.41,20.13,5.58-5.24,18.87-20.13-5.58-2.43,8.75,21.26,5.9-5.52,19.9-45.48-12.62,21.04-75.84Z"/>
  </g>
  <g>
    <path class="c" d="M343.27,532.67l26.09,2.36-5.23,57.82,21.62,1.96-1.86,20.57-47.71-4.32,7.1-78.38Z"/>
    <path class="c" d="M417.3,538.76l18.84,1.18,24.88,80.42-24.73-1.55-2.15-7.23-23.79-1.49-3.03,6.9-24.73-1.55,34.71-76.69ZM428.63,593.86l-4.44-14.11-6.16,13.45,10.6.66Z"/>
    <path class="c" d="M488.02,621.35l1.69-78.69,21.83.47c7.39.16,13.96,1.13,19.71,2.9,5.75,1.78,10.57,4.36,14.47,7.75,3.9,3.39,6.84,7.56,8.82,12.52,1.98,4.96,2.9,10.67,2.76,17.11-.14,6.45-1.3,12.11-3.49,16.98-2.19,4.87-5.31,8.92-9.35,12.13-4.04,3.22-8.97,5.61-14.79,7.18-5.82,1.57-12.42,2.27-19.81,2.11l-21.83-.47ZM513.62,599.47c5.9.13,10.49-1.17,13.77-3.89,3.28-2.72,4.99-6.95,5.11-12.7.12-5.74-1.4-10.02-4.56-12.84-3.17-2.82-7.7-4.3-13.6-4.42l-.73,33.86Z"/>
    <path class="c" d="M563.57,544.03l46.37-.25.11,20.65-21.24.11.05,8.73,20.89-.11.11,19.59-20.89.11.05,9.09,22.07-.12.11,20.65-47.2.25-.42-78.7ZM579.83,539.34l9.7-18.34,17.35-.09-14.06,18.37-12.98.07Z"/>
    <path class="c" d="M616.99,543.69l46.36-1.24.55,20.64-21.23.57.23,8.73,20.88-.56.52,19.58-20.88.56.24,9.08,22.06-.59.55,20.64-47.18,1.26-2.1-78.68Z"/>
    <path class="c" d="M670.94,596.5c1.75.47,3.58.81,5.49,1.03,1.59.32,3.39.54,5.41.68,2.02.14,4.04.16,6.09.06,3.61-.18,5.36-1.6,5.23-4.27-.05-1.02-.65-2.04-1.8-3.04-1.15-1.01-2.6-2.12-4.36-3.33-1.75-1.21-3.63-2.56-5.63-4.04-2-1.48-3.9-3.19-5.69-5.16-1.79-1.96-3.3-4.19-4.52-6.69-1.23-2.5-1.92-5.4-2.08-8.7-.18-3.69.33-6.99,1.52-9.88,1.2-2.89,2.93-5.34,5.19-7.34s4.96-3.57,8.1-4.71c3.13-1.14,6.51-1.8,10.12-1.97,1.89-.09,3.78-.08,5.67.02,1.9.1,3.59.2,5.09.28,1.74.15,3.44.3,5.1.46l1.08,22.04c-.63-.05-1.34-.09-2.13-.13-.63-.05-1.34-.09-2.13-.13-.79-.04-1.62-.04-2.48,0-.47.02-1.06.07-1.77.15-.71.08-1.37.21-1.99.39-.62.19-1.16.49-1.61.91-.45.42-.66.98-.63,1.68.03.63.6,1.39,1.71,2.28,1.11.89,2.46,1.93,4.05,3.11,1.59,1.18,3.35,2.55,5.28,4.11,1.93,1.56,3.71,3.36,5.35,5.41,1.64,2.05,3.05,4.38,4.24,7,1.19,2.62,1.87,5.58,2.03,8.88.17,3.46-.22,6.73-1.17,9.8-.95,3.08-2.53,5.79-4.74,8.15-2.21,2.35-5.09,4.27-8.64,5.74-3.55,1.47-7.8,2.33-12.75,2.57-2.99.15-5.76.14-8.33,0-2.57-.15-4.84-.37-6.83-.67-2.3-.28-4.4-.65-6.32-1.11l-1.16-23.57Z"/>
    <path class="c" d="M724.3,593.84c1.76.43,3.6.73,5.51.91,1.6.28,3.41.46,5.42.56,2.02.09,4.04.06,6.09-.08,3.61-.26,5.32-1.72,5.13-4.39-.07-1.02-.7-2.02-1.87-3-1.18-.98-2.65-2.06-4.43-3.23-1.78-1.17-3.69-2.47-5.72-3.91-2.04-1.43-3.97-3.1-5.8-5.03-1.83-1.92-3.39-4.11-4.67-6.58-1.28-2.47-2.04-5.35-2.28-8.65-.27-3.69.17-6.99,1.3-9.91,1.13-2.92,2.81-5.41,5.02-7.46,2.22-2.05,4.88-3.68,7.99-4.89,3.11-1.21,6.46-1.94,10.07-2.2,1.88-.14,3.77-.17,5.67-.11,1.9.06,3.6.12,5.1.17,1.74.11,3.45.23,5.11.34l1.58,22.01c-.63-.03-1.35-.06-2.14-.08-.63-.03-1.35-.06-2.14-.08-.79-.02-1.62,0-2.48.06-.47.03-1.06.1-1.76.19-.7.09-1.36.24-1.98.44-.62.2-1.15.52-1.59.94-.44.43-.64.99-.59,1.7.04.63.63,1.37,1.76,2.24,1.13.87,2.5,1.87,4.12,3.02,1.62,1.15,3.41,2.48,5.37,3.99,1.96,1.52,3.79,3.28,5.47,5.29,1.68,2.01,3.15,4.31,4.4,6.9,1.25,2.59,2,5.54,2.23,8.83.25,3.45-.07,6.73-.95,9.83-.88,3.1-2.4,5.85-4.55,8.25-2.15,2.4-4.99,4.38-8.5,5.94-3.52,1.55-7.75,2.51-12.69,2.87-2.98.21-5.76.28-8.33.18-2.57-.09-4.85-.26-6.84-.51-2.31-.23-4.42-.55-6.34-.96l-1.69-23.54Z"/>
    <path class="c" d="M774.54,535.73l46.16-4.44,1.98,20.56-21.14,2.03.84,8.69,20.79-2,1.88,19.5-20.79,2,.87,9.04,21.96-2.11,1.98,20.55-46.98,4.52-7.54-78.34Z"/>
  </g>
  <g>
    <path class="c" d="M462.32,263.54h-65.51l26.49-66.59h145.71l-94.15,238.79h-80.55l68.02-172.2Z"/>
    <path class="c" d="M749.08,316.53c0,40.58-8.47,71.6-25.42,93.08-16.95,21.48-40.58,32.22-70.88,32.22s-53.94-10.74-70.88-32.22c-16.95-21.48-25.42-52.5-25.42-93.08s8.47-71.6,25.42-93.08c16.94-21.48,40.57-32.22,70.88-32.22s53.94,10.74,70.88,32.22c16.94,21.48,25.42,52.51,25.42,93.08ZM675.69,316.53c0-37.47-7.64-56.21-22.91-56.21s-22.91,18.74-22.91,56.21,7.64,56.21,22.91,56.21,22.91-18.73,22.91-56.21Z"/>
  </g>
  <g>
    <path class="c" d="M737.24,189.63h16.9v7.53h-7.74v3.18h7.61v7.14h-7.61v3.31h8.04v7.52h-17.2v-28.68ZM744.03,187.95l-5.16-6.67h6.32l3.57,6.67h-4.73Z"/>
    <path class="c" d="M757.01,189.63h7.57l7.48,11.01,7.44-11.01h7.57v28.68h-9.16v-10.32l-5.85,8.6-5.89-8.6v10.32h-9.16v-28.68Z"/>
    <path class="c" d="M790.08,189.63h16.9v7.53h-7.74v3.18h7.61v7.14h-7.61v3.31h8.04v7.52h-17.2v-28.68Z"/>
  </g>
</svg>